<svg xmlns="http://www.w3.org/2000/svg" width="98" height="97.999" viewBox="0 0 98 97.999">
  <g id="Group_1278200" data-name="Group 1278200" transform="translate(-804 -2538)">
    <g id="Group_1204422" data-name="Group 1204422" transform="translate(1.219 571)">
      <g id="Group_1204180" data-name="Group 1204180" transform="translate(-1 -5.016)">
        <g id="Group_1204143" data-name="Group 1204143" transform="translate(-67.331 1694.852)">
          <g id="Group_1188789" data-name="Group 1188789" transform="translate(871.113 277.164)">
            <path id="Path_1243039" data-name="Path 1243039" d="M41.05,0h0a41.05,41.05,0,0,1,0,82.1h0a41.05,41.05,0,0,1,0-82.1Z" transform="translate(7.951 7.949)" fill="#efce09"/>
            <rect id="Rectangle_400907" data-name="Rectangle 400907" width="88.438" height="88.437" rx="44.218" transform="translate(4.782 4.781)" fill="none"/>
            <g id="Group_1098742" data-name="Group 1098742" transform="translate(0)">
              <g id="Rectangle_400898" data-name="Rectangle 400898" transform="translate(0)" fill="none" stroke="#fff" stroke-width="2" opacity="0.859">
                <rect width="98" height="97.999" rx="48.999" stroke="none"/>
                <rect x="1" y="1" width="96" height="95.999" rx="47.999" fill="none"/>
              </g>
              <g id="Rectangle_400907-2" data-name="Rectangle 400907" transform="translate(0)" fill="none" stroke="#0f1f33" stroke-linecap="round" stroke-width="2">
                <rect width="98" height="97.999" rx="48.999" stroke="none"/>
                <rect x="1" y="1" width="96" height="95.999" rx="47.999" fill="none"/>
              </g>
            </g>
          </g>
        </g>
      </g>
    </g>
    <g id="Group_1278815" data-name="Group 1278815" transform="translate(9809.792 6866.649)">
      <g id="Group_1278811" data-name="Group 1278811">
        <path id="Path_1491830" data-name="Path 1491830" d="M427.17,22.492v-2.22a5.062,5.062,0,0,1,5.047-5.047h44.31a5.061,5.061,0,0,1,5.047,5.047V44.8a5.061,5.061,0,0,1-5.047,5.047h-9.488l-.605-1.111a1.472,1.472,0,0,0-2.019-.505l-.2.1-2.22-4.037a10.892,10.892,0,0,0,2.119-13.526,10.942,10.942,0,1,0-6.157,15.847l1.817,3.23H432.217A5.062,5.062,0,0,1,427.17,44.8Z" transform="translate(-9411.164 -4319)" fill="#1dbfc1" stroke="#000" stroke-linecap="round" stroke-linejoin="round" stroke-width="1" stroke-dasharray="80 5"/>
        <rect id="Rectangle_440328" data-name="Rectangle 440328" width="4.845" height="4.845" transform="translate(-8942.308 -4285.304)" fill="#bf542e" stroke="#000" stroke-linecap="round" stroke-linejoin="round" stroke-width="1" stroke-dasharray="80 5"/>
        <rect id="Rectangle_440329" data-name="Rectangle 440329" width="4.845" height="4.845" transform="translate(-8975.818 -4285.304)" fill="#bf542e" stroke="#000" stroke-linecap="round" stroke-linejoin="round" stroke-width="1" stroke-dasharray="80 5"/>
        <path id="Path_1491831" data-name="Path 1491831" d="M445.136,17.344a1.518,1.518,0,1,1-1.413,1.515,1.467,1.467,0,0,1,1.413-1.515" transform="translate(-9411.164 -4319)" fill="#fd9b3a" stroke="#000" stroke-linecap="round" stroke-linejoin="round" stroke-width="1" stroke-dasharray="80 5"/>
        <path id="Path_1491832" data-name="Path 1491832" d="M439.585,17.344a1.514,1.514,0,1,1-1.514,1.515,1.552,1.552,0,0,1,1.514-1.515" transform="translate(-9411.164 -4319)" fill="#fd9b3a" stroke="#000" stroke-linecap="round" stroke-linejoin="round" stroke-width="1" stroke-dasharray="80 5"/>
        <path id="Path_1491833" data-name="Path 1491833" d="M433.933,17.344a1.518,1.518,0,0,1,0,3.028,1.514,1.514,0,1,1,0-3.028" transform="translate(-9411.164 -4319)" fill="#fd9b3a" stroke="#000" stroke-linecap="round" stroke-linejoin="round" stroke-width="1" stroke-dasharray="80 5"/>
        <path id="Path_1491834" data-name="Path 1491834" d="M469.159,58.425a1.4,1.4,0,1,1-1.917-.505,1.374,1.374,0,0,1,1.917.505" transform="translate(-9411.164 -4319)" fill="#424242" stroke="#000" stroke-linecap="round" stroke-linejoin="round" stroke-width="1" stroke-dasharray="80 5"/>
        <path id="Path_1491835" data-name="Path 1491835" d="M464.515,48.129a1.47,1.47,0,0,1,2.019.5l.606,1.11,5.248,8.984a1.469,1.469,0,0,1-.5,2.018l-4.239,2.524a1.472,1.472,0,0,1-2.019-.505l-5.854-10.094a1.471,1.471,0,0,1,.5-2.019l.2-.1,3.937-2.322Zm4.139,12.213a1.4,1.4,0,1,0-1.918-.5,1.355,1.355,0,0,0,1.918.5" transform="translate(-9411.164 -4319)" fill="#424242" stroke="#000" stroke-linecap="round" stroke-linejoin="round" stroke-width="1" stroke-dasharray="80 5"/>
        <path id="Path_1491836" data-name="Path 1491836" d="M464.314,48.23l-3.937,2.322-2.22-3.936a7.074,7.074,0,0,0,1.312-.505c.1,0,.1-.1.2-.1a.353.353,0,0,0,.2-.1.1.1,0,0,0,.1-.1c.1,0,.1-.1.2-.1s.1-.1.2-.1l.1-.1c.1-.1.2-.1.3-.2l.1-.1a.352.352,0,0,1,.2-.1.1.1,0,0,0,.1-.1l.1-.1h.1c.2-.2.4-.3.606-.505Z" transform="translate(-9411.164 -4319)" fill="#545454" stroke="#000" stroke-linecap="round" stroke-linejoin="round" stroke-width="1" stroke-dasharray="80 5"/>
        <path id="Path_1491837" data-name="Path 1491837" d="M443.824,42.982a.525.525,0,0,1-.4-.2,13,13,0,0,1,4.744-17.765.452.452,0,0,1,.4.808,12.178,12.178,0,0,0-4.441,16.554.4.4,0,0,1-.2.6Z" transform="translate(-9411.164 -4319)" fill="#168f91" stroke="#000" stroke-linecap="round" stroke-linejoin="round" stroke-width="1" stroke-dasharray="80 5"/>
        <path id="Path_1491838" data-name="Path 1491838" d="M467.039,39.348h0c-.3-.1-.5-.3-.4-.505a12.681,12.681,0,0,0-1.312-8.579.452.452,0,0,1,.808-.4,12.928,12.928,0,0,1,1.413,9.286c-.1,0-.3.2-.505.2" transform="translate(-9411.164 -4319)" fill="#168f91" stroke="#000" stroke-linecap="round" stroke-linejoin="round" stroke-width="1" stroke-dasharray="80 5"/>
        <path id="Path_1491839" data-name="Path 1491839" d="M467.443,21.988H427.17V22.9h40.273a.434.434,0,0,0,.4-.4c0-.2-.1-.5-.4-.5" transform="translate(-9411.164 -4319)" fill="#168f91" stroke="#000" stroke-linecap="round" stroke-linejoin="round" stroke-width="1" stroke-dasharray="80 5"/>
        <path id="Path_1491840" data-name="Path 1491840" d="M464.213,30.769a10.867,10.867,0,0,1-2.12,13.525,2.621,2.621,0,0,1-.6.5h-.1l-.1.1a.1.1,0,0,0-.1.1.354.354,0,0,1-.2.1l-.1.1c-.1.1-.2.1-.3.2l-.1.1c-.1,0-.1.1-.2.1a9.53,9.53,0,0,1-2.12.908,10.918,10.918,0,1,1,6.056-15.745" transform="translate(-9411.164 -4319)" fill="#ff703d" stroke="#000" stroke-linecap="round" stroke-linejoin="round" stroke-width="1" stroke-dasharray="80 5"/>
        <path id="Path_1491841" data-name="Path 1491841" d="M468.755,58.626a.887.887,0,0,1,.1.707c-.1.2-.2.505-.4.6a1,1,0,0,1-1.312-.4.888.888,0,0,1-.1-.706c.1-.2.2-.5.4-.6a.751.751,0,0,1,.505-.1,1.028,1.028,0,0,1,.807.505" transform="translate(-9411.164 -4319)" fill="#545454" stroke="#000" stroke-linecap="round" stroke-linejoin="round" stroke-width="1" stroke-dasharray="80 5"/>
        <rect id="Rectangle_440330" data-name="Rectangle 440330" width="9.689" height="9.69" transform="translate(-8961.586 -4287.727)" fill="#bf542e" stroke="#000" stroke-linecap="round" stroke-linejoin="round" stroke-width="1" stroke-dasharray="80 5"/>
      </g>
    </g>
  </g>
</svg>
