<svg xmlns="http://www.w3.org/2000/svg" width="98" height="97.999" viewBox="0 0 98 97.999">
  <g id="Group_1278835" data-name="Group 1278835" transform="translate(-804 -1967)">
    <g id="Group_1204285" data-name="Group 1204285" transform="translate(1.219)">
      <g id="Group_1204180" data-name="Group 1204180" transform="translate(-1 -5.016)">
        <g id="Group_1204143" data-name="Group 1204143" transform="translate(-67.331 1694.852)">
          <g id="Group_1188789" data-name="Group 1188789" transform="translate(871.113 277.164)">
            <path id="Path_1243039" data-name="Path 1243039" d="M41.05,0h0a41.05,41.05,0,0,1,0,82.1h0a41.05,41.05,0,0,1,0-82.1Z" transform="translate(7.951 7.949)" fill="#a9e2df"/>
            <rect id="Rectangle_400907" data-name="Rectangle 400907" width="88.438" height="88.437" rx="44.218" transform="translate(4.782 4.781)" fill="none"/>
            <g id="Group_1098742" data-name="Group 1098742" transform="translate(0)">
              <g id="Rectangle_400898" data-name="Rectangle 400898" transform="translate(0)" fill="none" stroke="#fff" stroke-width="2" opacity="0.859">
                <rect width="98" height="97.999" rx="48.999" stroke="none"/>
                <rect x="1" y="1" width="96" height="95.999" rx="47.999" fill="none"/>
              </g>
              <g id="Rectangle_400907-2" data-name="Rectangle 400907" transform="translate(0)" fill="none" stroke="#0f1f33" stroke-linecap="round" stroke-width="2">
                <rect width="98" height="97.999" rx="48.999" stroke="none"/>
                <rect x="1" y="1" width="96" height="95.999" rx="47.999" fill="none"/>
              </g>
            </g>
          </g>
        </g>
      </g>
    </g>
    <g id="Group_1278900" data-name="Group 1278900" transform="translate(-11813.779 3576.438)">
      <path id="Path_1492114" data-name="Path 1492114" d="M401.916,47.436l3.529,13.006v.505h-8.268v-.505l3.529-13.006-.3-.5,1.21-.706.806.5Z" transform="translate(12265.468 -1599)" fill="#f3ac1e" stroke="#000" stroke-linecap="round" stroke-linejoin="round" stroke-width="1" stroke-dasharray="80 5"/>
      <path id="Path_1492115" data-name="Path 1492115" d="M408.57,37.253l3.024,3.63-6.251,7.763L402.42,46.73l-.807-.5Z" transform="translate(12265.468 -1599)" fill="#238389" stroke="#000" stroke-linecap="round" stroke-linejoin="round" stroke-width="1" stroke-dasharray="80 5"/>
      <path id="Path_1492116" data-name="Path 1492116" d="M395.363,37.253l6.251,8.973-1.21.706-2.823,1.714-4.537-7.965Z" transform="translate(12265.468 -1599)" fill="#238389" stroke="#000" stroke-linecap="round" stroke-linejoin="round" stroke-width="1" stroke-dasharray="80 5"/>
      <path id="Path_1492117" data-name="Path 1492117" d="M414.922,60.946h-9.477v-.505l-3.529-13.006.5-.705,2.924,1.915,6.251-7.762L424.4,45.117V60.946Z" transform="translate(12265.468 -1599)" fill="#2eaeb7" stroke="#000" stroke-linecap="round" stroke-linejoin="round" stroke-width="1" stroke-dasharray="80 5"/>
      <path id="Path_1492118" data-name="Path 1492118" d="M387.7,60.946h-9.478V43.806l14.822-3.126,4.536,7.965,2.824-1.714.3.5-3.529,13.006v.505Z" transform="translate(12265.468 -1599)" fill="#2eaeb7" stroke="#000" stroke-linecap="round" stroke-linejoin="round" stroke-width="1" stroke-dasharray="80 5"/>
      <path id="Path_1492119" data-name="Path 1492119" d="M401.916,14.266a9.477,9.477,0,1,1-9.477,9.477,9.466,9.466,0,0,1,9.477-9.477" transform="translate(12265.468 -1599)" fill="#fbd5a6" stroke="#000" stroke-linecap="round" stroke-linejoin="round" stroke-width="1" stroke-dasharray="80 5"/>
      <path id="Path_1492120" data-name="Path 1492120" d="M386.591,32.111A1.335,1.335,0,0,1,385.28,30.8V21.323a1.311,1.311,0,0,1,2.622,0V30.8a1.5,1.5,0,0,1-1.311,1.311" transform="translate(12265.468 -1599)" fill="#f3ac1e" stroke="#000" stroke-linecap="round" stroke-linejoin="round" stroke-width="1" stroke-dasharray="80 5"/>
      <path id="Path_1492121" data-name="Path 1492121" d="M382.961,40.378a1.335,1.335,0,0,1-1.311-1.311V26.162a1.311,1.311,0,0,1,2.622,0V39.168a1.32,1.32,0,0,1-1.311,1.21" transform="translate(12265.468 -1599)" fill="#f3ac1e" stroke="#000" stroke-linecap="round" stroke-linejoin="round" stroke-width="1" stroke-dasharray="80 5"/>
      <path id="Path_1492122" data-name="Path 1492122" d="M420.77,20.314A1.333,1.333,0,0,1,419.459,19V9.527a1.311,1.311,0,1,1,2.622,0V19a1.333,1.333,0,0,1-1.311,1.31" transform="translate(12265.468 -1599)" fill="#f3ac1e" stroke="#000" stroke-linecap="round" stroke-linejoin="round" stroke-width="1" stroke-dasharray="80 5"/>
      <path id="Path_1492123" data-name="Path 1492123" d="M417.241,28.582a1.335,1.335,0,0,1-1.311-1.311V14.266a1.311,1.311,0,0,1,2.622,0V27.271a1.335,1.335,0,0,1-1.311,1.311" transform="translate(12265.468 -1599)" fill="#f3ac1e" stroke="#000" stroke-linecap="round" stroke-linejoin="round" stroke-width="1" stroke-dasharray="80 5"/>
      <path id="Path_1492124" data-name="Path 1492124" d="M401.412,20.214a2.1,2.1,0,0,0-.6.4,1.436,1.436,0,0,0-.2.6,1.431,1.431,0,0,0,.2.6.923.923,0,0,0,.6.4Zm1.714,4.638a1.594,1.594,0,0,0-.807-.5v2.42a2.046,2.046,0,0,0,.807-.4,1.147,1.147,0,0,0,.3-.806.917.917,0,0,0-.3-.706m-.807-4.638v2.42a4.094,4.094,0,0,1,2.017,1.008,2.222,2.222,0,0,1,.5,1.613,2.664,2.664,0,0,1-.706,1.916,2.873,2.873,0,0,1-1.916.907v1.11h-.907v-1.11a2.344,2.344,0,0,1-1.512-.706,3.359,3.359,0,0,1-.807-1.915l1.613-.2a2.026,2.026,0,0,0,.4.807,2.69,2.69,0,0,0,.6.5V24.045a3.1,3.1,0,0,1-1.714-1.008,2.729,2.729,0,0,1,0-3.427,2.508,2.508,0,0,1,1.714-.807V18.2h.908V18.8a2.151,2.151,0,0,1,1.512.7,2.65,2.65,0,0,1,.706,1.513l-1.513.2a1.8,1.8,0,0,0-.907-1.008" transform="translate(12265.468 -1599)" fill="#238389"/>
    </g>
  </g>
</svg>
