<svg xmlns="http://www.w3.org/2000/svg" width="98" height="97.999" viewBox="0 0 98 97.999">
  <g id="Group_1278235" data-name="Group 1278235" transform="translate(-804 -2538)">
    <g id="Group_1204422" data-name="Group 1204422" transform="translate(1.219 571)">
      <g id="Group_1204180" data-name="Group 1204180" transform="translate(-1 -5.016)">
        <g id="Group_1204143" data-name="Group 1204143" transform="translate(-67.331 1694.852)">
          <g id="Group_1188789" data-name="Group 1188789" transform="translate(871.113 277.164)">
            <path id="Path_1243039" data-name="Path 1243039" d="M41.05,0h0a41.05,41.05,0,0,1,0,82.1h0a41.05,41.05,0,0,1,0-82.1Z" transform="translate(7.951 7.949)" fill="#efce09"/>
            <rect id="Rectangle_400907" data-name="Rectangle 400907" width="88.438" height="88.437" rx="44.218" transform="translate(4.782 4.781)" fill="none"/>
            <g id="Group_1098742" data-name="Group 1098742" transform="translate(0)">
              <g id="Rectangle_400898" data-name="Rectangle 400898" transform="translate(0)" fill="none" stroke="#fff" stroke-width="2" opacity="0.859">
                <rect width="98" height="97.999" rx="48.999" stroke="none"/>
                <rect x="1" y="1" width="96" height="95.999" rx="47.999" fill="none"/>
              </g>
              <g id="Rectangle_400907-2" data-name="Rectangle 400907" transform="translate(0)" fill="none" stroke="#0f1f33" stroke-linecap="round" stroke-width="2">
                <rect width="98" height="97.999" rx="48.999" stroke="none"/>
                <rect x="1" y="1" width="96" height="95.999" rx="47.999" fill="none"/>
              </g>
            </g>
          </g>
        </g>
      </g>
    </g>
    <g id="Group_1278818" data-name="Group 1278818" transform="translate(10000.644 6869.827)">
      <path id="Path_1491758" data-name="Path 1491758" d="M263.571,29.646a6.527,6.527,0,1,1-6.527,6.527,6.514,6.514,0,0,1,6.527-6.527" transform="translate(-9411.164 -4319)" fill="#fd9b3a" stroke="#000" stroke-linecap="round" stroke-linejoin="round" stroke-width="1" stroke-dasharray="80 5"/>
      <path id="Path_1491759" data-name="Path 1491759" d="M248.006,54.449h35.447a26.561,26.561,0,0,1-5.824,4.82H249.411a33.569,33.569,0,0,1-3.615-2.61Z" transform="translate(-9411.164 -4319)" fill="#999" stroke="#000" stroke-linecap="round" stroke-linejoin="round" stroke-width="1" stroke-dasharray="80 5"/>
      <path id="Path_1491760" data-name="Path 1491760" d="M289.177,44.809h0a26.285,26.285,0,0,1-2.209,4.82H252.826l3.615-3.615a12.262,12.262,0,0,0,7.029,2.31,11.991,11.991,0,0,0,8.536-3.515Z" transform="translate(-9411.164 -4319)" fill="#999" stroke="#000" stroke-linecap="round" stroke-linejoin="round" stroke-width="1" stroke-dasharray="80 5"/>
      <path id="Path_1491761" data-name="Path 1491761" d="M290.584,35.169v.9a25.7,25.7,0,0,1-.3,3.916H275.019a12.3,12.3,0,0,0,.6-3.916v-.9Z" transform="translate(-9411.164 -4319)" fill="#999" stroke="#000" stroke-linecap="round" stroke-linejoin="round" stroke-width="1" stroke-dasharray="80 5"/>
      <path id="Path_1491762" data-name="Path 1491762" d="M249.412,59.269H277.63a27.374,27.374,0,0,1-28.218,0" transform="translate(-9411.164 -4319)" fill="#cdcdcd" stroke="#000" stroke-linecap="round" stroke-linejoin="round" stroke-width="1" stroke-dasharray="80 5"/>
      <path id="Path_1491763" data-name="Path 1491763" d="M287.069,49.629h0a32.8,32.8,0,0,1-3.515,4.82H248.006l4.82-4.82Z" transform="translate(-9411.164 -4319)" fill="#cdcdcd" stroke="#000" stroke-linecap="round" stroke-linejoin="round" stroke-width="1" stroke-dasharray="80 5"/>
      <path id="Path_1491764" data-name="Path 1491764" d="M290.382,39.989h0a24.1,24.1,0,0,1-1.1,4.82H272.006a11.561,11.561,0,0,0,3.013-4.82Z" transform="translate(-9411.164 -4319)" fill="#cdcdcd" stroke="#000" stroke-linecap="round" stroke-linejoin="round" stroke-width="1" stroke-dasharray="80 5"/>
      <path id="Path_1491765" data-name="Path 1491765" d="M290.584,35.169H275.622v-.2l14.561-3.916a28.692,28.692,0,0,1,.4,4.117" transform="translate(-9411.164 -4319)" fill="#cdcdcd" stroke="#000" stroke-linecap="round" stroke-linejoin="round" stroke-width="1" stroke-dasharray="80 5"/>
      <path id="Path_1491766" data-name="Path 1491766" d="M253.63,43.2,242.984,53.846a27.468,27.468,0,0,1-6.527-15.665h15.064A13.034,13.034,0,0,0,253.63,43.2" transform="translate(-9411.164 -4319)" fill="#83cf8f" stroke="#000" stroke-linecap="round" stroke-linejoin="round" stroke-width="1" stroke-dasharray="80 5"/>
      <path id="Path_1491767" data-name="Path 1491767" d="M289.177,27.236l-14.56,3.917a11.928,11.928,0,0,0-9.038-6.929V9.161a26.919,26.919,0,0,1,23.6,18.075" transform="translate(-9411.164 -4319)" fill="#1dbfc1" stroke="#000" stroke-linecap="round" stroke-linejoin="round" stroke-width="1" stroke-dasharray="80 5"/>
      <path id="Path_1491768" data-name="Path 1491768" d="M261.563,9.16V24.223a12.267,12.267,0,0,0-10.042,10.041H236.458a27.16,27.16,0,0,1,25.1-25.1" transform="translate(-9411.164 -4319)" fill="#ff703d" stroke="#000" stroke-linecap="round" stroke-linejoin="round" stroke-width="1" stroke-dasharray="80 5"/>
      <path id="Path_1491769" data-name="Path 1491769" d="M263.27,35.169V33.663a1.38,1.38,0,0,0-.4.3.757.757,0,0,0-.1.5c0,.2,0,.3.1.4a1.38,1.38,0,0,0,.4.3m1.305,2.21a.765.765,0,0,0-.2-.5,1.646,1.646,0,0,0-.6-.3v1.707c.2,0,.4-.2.5-.3a.6.6,0,0,0,.3-.6m1.1-.1a2.109,2.109,0,0,1-.5,1.305,2.325,2.325,0,0,1-1.3.7v.8h-.6v-.8a2.2,2.2,0,0,1-1.2-.5,2.269,2.269,0,0,1-.6-1.305l1.1-.1a.868.868,0,0,0,.3.6c.1.2.3.3.4.4V36.575a2.721,2.721,0,0,1-1.2-.7,1.6,1.6,0,0,1-.4-1.205,2.152,2.152,0,0,1,.4-1.2,2.288,2.288,0,0,1,1.2-.6v-.4h.6v.4a1.89,1.89,0,0,1,1.1.5,1.923,1.923,0,0,1,.5,1.005l-1.105.1c-.1-.3-.2-.6-.5-.7V35.47a2.582,2.582,0,0,1,1.406.7,1.25,1.25,0,0,1,.4,1.1" transform="translate(-9411.164 -4319)" fill="#4f4033"/>
    </g>
  </g>
</svg>
